<svg width="4" height="4" viewBox="0 0 4 4" fill="none" xmlns="http://www.w3.org/2000/svg">
<path d="M0.580054 2.09956C0.501187 2.00034 0.501187 1.90112 0.580054 1.8019L1.75543 0.328867C1.82666 0.239824 1.90299 0.227103 1.9844 0.290705L2.32022 0.557836C2.38891 0.613806 2.38382 0.690129 2.30495 0.786805L1.36236 1.95073L2.30495 3.11465C2.38382 3.21133 2.38891 3.28765 2.32022 3.34362L1.9844 3.61075C1.90299 3.67436 1.82666 3.66163 1.75543 3.57259L0.580054 2.09956ZM2.11415 2.09956C2.03528 2.00034 2.03528 1.90112 2.11415 1.8019L3.28952 0.328867C3.36075 0.239824 3.43708 0.227103 3.51849 0.290705L3.85431 0.557836C3.923 0.613806 3.91791 0.690129 3.83904 0.786805L2.89646 1.95073L3.83904 3.11465C3.91791 3.21133 3.923 3.28765 3.85431 3.34362L3.51849 3.61075C3.43708 3.67436 3.36075 3.66163 3.28952 3.57259L2.11415 2.09956Z" fill="black"/>
</svg>
