<svg width="4" height="4" viewBox="0 0 4 4" fill="none" xmlns="http://www.w3.org/2000/svg">
<path d="M0.595319 3.32073C0.526628 3.26476 0.531716 3.18843 0.610583 3.09176L1.55317 1.92783L0.610583 0.763908C0.531716 0.667232 0.526628 0.590909 0.595319 0.534939L0.93114 0.267809C1.01255 0.204206 1.08887 0.216927 1.16011 0.30597L2.33548 1.779C2.41435 1.87822 2.41435 1.97744 2.33548 2.07666L1.16011 3.54969C1.08887 3.63874 1.01255 3.65146 0.93114 3.58786L0.595319 3.32073ZM2.12941 3.32073C2.06072 3.26476 2.06581 3.18843 2.14467 3.09176L3.08726 1.92783L2.14467 0.763908C2.06581 0.667232 2.06072 0.590909 2.12941 0.534939L2.46523 0.267809C2.54664 0.204206 2.62296 0.216927 2.6942 0.30597L3.86957 1.779C3.94844 1.87822 3.94844 1.97744 3.86957 2.07666L2.6942 3.54969C2.62296 3.63874 2.54664 3.65146 2.46523 3.58786L2.12941 3.32073Z" fill="black"/>
</svg>
